# WaveFront *.obj file (generated by CINEMA 4D)

mtllib B.mtl

v 280 -20 140
v 280 20 140
v 320 -20 140
v 320 20 140
v 320 -20 20
v 320 20 20
v 280 -20 20
v 280 20 20
v 280 -20 180
v 280 20 180
v 320 -20 180
v 320 20 180
v 360 -20 140
v 360 20 140
v 360 -20 180
v 360 20 180
v 400 -20 140
v 400 20 140
v 400 -20 180
v 400 20 180
v 360 -20 20
v 360 20 20
v 400 -20 20
v 400 20 20
v 400 20 160
v 360 20 160
v 320 20 160
v 280 20 160
v 280 -20 160
v 320 -20 160
v 360 -20 160
v 400 -20 160
v 440 -20 180
v 440 20 180
v 440 20 160
v 440 -20 160
v 480 -20 180
v 480 20 180
v 480 20 160
v 480 -20 160
v 520 -20 180
v 520 20 180
v 520 20 160
v 520 -20 160
v 560 -20 180
v 560 20 180
v 560 20 160
v 560 -20 160
v 480 20 140
v 480 -20 140
v 520 20 140
v 520 -20 140
v 440 20 20
v 440 -20 20
v 480 20 20
v 480 -20 20
v 520 20 20
v 520 -20 20
v 560 20 20
v 560 -20 20
# 60 vertices

vn 0 0 1
vn 1 0 0
vn 0 0 -1
vn -1 0 0
vn 0 1 0
vn 0 -1 0
# 6 normals

vt 0 0 0
vt 0 1 0
vt 1 1 0
vt 1 0 0
# 4 texture coordinates

o building8
usemtl default
f 11/4/1 12/3/1 10/2/1 9/1/1
f 5/4/2 6/3/2 4/2/2 3/1/2
f 7/4/3 8/3/3 6/2/3 5/1/3
f 1/4/4 2/3/4 8/2/4 7/1/4
f 4/4/5 6/3/5 8/2/5 2/1/5
f 5/4/6 3/3/6 1/2/6 7/1/6
f 3/4/6 30/4/6 29/1/6 1/1/6
f 18/3/2 25/3/2 32/4/2 17/4/2
f 2/2/5 28/2/5 27/3/5 4/3/5
f 1/1/4 29/1/4 28/2/4 2/2/4
f 4/3/3 14/3/3 13/4/3 3/4/3
f 27/3/5 26/3/5 14/3/5 4/3/5
f 11/4/1 15/4/1 16/3/1 12/3/1
f 30/4/6 3/4/6 13/4/6 31/4/6
f 22/3/3 24/3/3 23/4/3 21/4/3
f 26/3/5 25/3/5 18/3/5 14/3/5
f 15/4/1 19/4/1 20/3/1 16/3/1
f 31/4/6 13/4/6 17/4/6 32/4/6
f 14/3/4 22/3/4 21/4/4 13/4/4
f 18/3/5 24/3/5 22/3/5 14/3/5
f 17/4/2 23/4/2 24/3/2 18/3/2
f 13/4/6 21/4/6 23/4/6 17/4/6
f 26/3/5 16/3/5 20/3/5 25/3/5
f 27/3/5 12/3/5 16/3/5 26/3/5
f 28/2/5 10/2/5 12/3/5 27/3/5
f 29/1/4 9/1/4 10/2/4 28/2/4
f 30/4/6 11/4/6 9/1/6 29/1/6
f 31/4/6 15/4/6 11/4/6 30/4/6
f 32/4/6 19/4/6 15/4/6 31/4/6
f 47/3/2 46/3/2 45/4/2 48/4/2
f 25/3/3 35/3/3 36/4/3 32/4/3
f 20/3/5 34/3/5 35/3/5 25/3/5
f 19/4/1 33/4/1 34/3/1 20/3/1
f 32/4/6 36/4/6 33/4/6 19/4/6
f 53/3/3 55/3/3 56/4/3 54/4/3
f 34/3/5 38/3/5 39/3/5 35/3/5
f 33/4/1 37/4/1 38/3/1 34/3/1
f 36/4/6 40/4/6 37/4/6 33/4/6
f 49/3/3 51/3/3 52/4/3 50/4/3
f 38/3/5 42/3/5 43/3/5 39/3/5
f 37/4/1 41/4/1 42/3/1 38/3/1
f 40/4/6 44/4/6 41/4/6 37/4/6
f 57/3/3 59/3/3 60/4/3 58/4/3
f 42/3/5 46/3/5 47/3/5 43/3/5
f 41/4/1 45/4/1 46/3/1 42/3/1
f 44/4/6 48/4/6 45/4/6 41/4/6
f 39/3/4 49/3/4 50/4/4 40/4/4
f 43/3/5 51/3/5 49/3/5 39/3/5
f 44/4/2 52/4/2 51/3/2 43/3/2
f 40/4/6 50/4/6 52/4/6 44/4/6
f 35/3/4 53/3/4 54/4/4 36/4/4
f 39/3/5 55/3/5 53/3/5 35/3/5
f 40/4/2 56/4/2 55/3/2 39/3/2
f 36/4/6 54/4/6 56/4/6 40/4/6
f 43/3/4 57/3/4 58/4/4 44/4/4
f 47/3/5 59/3/5 57/3/5 43/3/5
f 48/4/2 60/4/2 59/3/2 47/3/2
f 44/4/6 58/4/6 60/4/6 48/4/6

v 180 -20 180
v 180 20 180
v 280 -20 180
v 280 20 180
v 280 -20 100
v 280 20 100
v 180 -20 100
v 180 20 100
v 160 -20 180
v 160 20 180
v 160 -20 100
v 160 20 100
v 180 -20 220
v 180 20 220
v 160 -20 220
v 160 20 220
# 16 vertices

# 0 normal

# 0 texture coordinate

o building7
usemtl default
f 63/4/1 64/3/1 62/2/1 61/1/1
f 65/4/2 66/3/2 64/2/2 63/1/2
f 67/4/3 68/3/3 66/2/3 65/1/3
f 69/4/4 70/3/4 72/2/4 71/1/4
f 64/4/5 66/3/5 68/2/5 62/1/5
f 65/4/6 63/3/6 61/2/6 67/1/6
f 61/4/6 69/4/6 71/1/6 67/1/6
f 74/3/1 76/3/1 75/4/1 73/4/1
f 68/2/5 72/2/5 70/3/5 62/3/5
f 67/1/3 71/1/3 72/2/3 68/2/3
f 62/3/2 74/3/2 73/4/2 61/4/2
f 70/3/5 76/3/5 74/3/5 62/3/5
f 69/4/4 75/4/4 76/3/4 70/3/4
f 61/4/6 73/4/6 75/4/6 69/4/6

v 200 -20 260
v 200 20 260
v 280 -20 260
v 280 20 260
v 280 -20 220
v 280 20 220
v 200 -20 220
v 200 20 220
v 160 -20 260
v 160 20 260
v 160 -20 220
v 160 20 220
v 200 -20 300
v 200 20 300
v 160 -20 300
v 160 20 300
v 200 -20 340
v 200 20 340
v 160 -20 340
v 160 20 340
v 280 -20 300
v 280 20 300
v 280 -20 340
v 280 20 340
v 180 20 340
v 180 -20 340
v 180 -20 300
v 180 -20 260
v 180 -20 220
v 180 20 220
v 180 20 260
v 180 20 300
v 160 -20 380
v 160 20 380
v 180 20 380
v 180 -20 380
# 36 vertices

# 0 normal

# 0 texture coordinate

o building6
usemtl default
f 79/4/1 80/3/1 78/2/1 77/1/1
f 81/4/2 82/3/2 80/2/2 79/1/2
f 83/4/3 84/3/3 82/2/3 81/1/3
f 85/4/4 86/3/4 88/2/4 87/1/4
f 80/4/5 82/3/5 84/2/5 78/1/5
f 81/4/6 79/3/6 77/2/6 83/1/6
f 104/4/6 85/4/6 87/1/6 105/1/6
f 111/3/1 110/3/1 109/4/1 112/4/1
f 106/2/5 88/2/5 86/3/5 107/3/5
f 105/1/3 87/1/3 88/2/3 106/2/3
f 78/3/2 90/3/2 89/4/2 77/4/2
f 107/3/5 86/3/5 92/3/5 108/3/5
f 85/4/4 91/4/4 92/3/4 86/3/4
f 104/4/6 103/4/6 91/4/6 85/4/6
f 98/3/2 100/3/2 99/4/2 97/4/2
f 108/3/5 92/3/5 96/3/5 101/3/5
f 91/4/4 95/4/4 96/3/4 92/3/4
f 103/4/6 102/4/6 95/4/6 91/4/6
f 90/3/3 98/3/3 97/4/3 89/4/3
f 94/3/5 100/3/5 98/3/5 90/3/5
f 93/4/1 99/4/1 100/3/1 94/3/1
f 89/4/6 97/4/6 99/4/6 93/4/6
f 102/4/1 93/4/1 94/3/1 101/3/1
f 103/4/6 89/4/6 93/4/6 102/4/6
f 104/4/6 77/4/6 89/4/6 103/4/6
f 105/1/6 83/1/6 77/4/6 104/4/6
f 106/2/3 84/2/3 83/1/3 105/1/3
f 107/3/5 78/3/5 84/2/5 106/2/5
f 108/3/5 90/3/5 78/3/5 107/3/5
f 101/3/5 94/3/5 90/3/5 108/3/5
f 101/3/2 111/3/2 112/4/2 102/4/2
f 96/3/5 110/3/5 111/3/5 101/3/5
f 95/4/4 109/4/4 110/3/4 96/3/4
f 102/4/6 112/4/6 109/4/6 95/4/6

v 200 -20 520
v 200 20 520
v 280 -20 520
v 280 20 520
v 280 -20 480
v 280 20 480
v 200 -20 480
v 200 20 480
v 160 -20 520
v 160 20 520
v 160 -20 480
v 160 20 480
v 200 -20 420
v 200 20 420
v 160 -20 420
v 160 20 420
v 200 -20 380
v 200 20 380
v 160 -20 380
v 160 20 380
v 280 -20 420
v 280 20 420
v 280 -20 380
v 280 20 380
# 24 vertices

# 0 normal

# 0 texture coordinate

o building5
usemtl default
f 115/4/1 116/3/1 114/2/1 113/1/1
f 117/4/2 118/3/2 116/2/2 115/1/2
f 119/4/3 120/3/3 118/2/3 117/1/3
f 121/4/4 122/3/4 124/2/4 123/1/4
f 116/4/5 118/3/5 120/2/5 114/1/5
f 117/4/6 115/3/6 113/2/6 119/1/6
f 113/4/6 121/4/6 123/1/6 119/1/6
f 114/3/1 122/3/1 121/4/1 113/4/1
f 120/2/5 124/2/5 122/3/5 114/3/5
f 129/1/3 131/1/3 132/2/3 130/2/3
f 119/1/2 125/1/2 126/2/2 120/2/2
f 123/1/6 127/1/6 125/1/6 119/1/6
f 124/2/4 128/2/4 127/1/4 123/1/4
f 120/2/5 126/2/5 128/2/5 124/2/5
f 133/1/2 135/1/2 136/2/2 134/2/2
f 127/1/6 131/1/6 129/1/6 125/1/6
f 128/2/4 132/2/4 131/1/4 127/1/4
f 126/2/5 130/2/5 132/2/5 128/2/5
f 125/1/1 133/1/1 134/2/1 126/2/1
f 129/1/6 135/1/6 133/1/6 125/1/6
f 130/2/3 136/2/3 135/1/3 129/1/3
f 126/2/5 134/2/5 136/2/5 130/2/5

v 0 -20 500
v 0 20 500
v 120 -20 500
v 120 20 500
v 120 -20 460
v 120 20 460
v 0 -20 460
v 0 20 460
v 160 -20 500
v 160 20 500
v 160 -20 460
v 160 20 460
v 120 -20 540
v 120 20 540
v 160 -20 540
v 160 20 540
v 120 -20 580
v 120 20 580
v 160 -20 580
v 160 20 580
v 120 -20 620
v 120 20 620
v 160 -20 620
v 160 20 620
v -0.00000009999999 -20 540
v -0.00000009999999 20 540
v -0.00000009999999 -20 580
v -0.00000009999999 20 580
# 28 vertices

# 0 normal

# 0 texture coordinate

o building4
usemtl default
f 139/4/1 140/3/1 138/2/1 137/1/1
f 147/4/2 148/3/2 146/2/2 145/1/2
f 143/4/3 144/3/3 142/2/3 141/1/3
f 137/4/4 138/3/4 144/2/4 143/1/4
f 140/4/5 142/3/5 144/2/5 138/1/5
f 141/4/6 139/3/6 137/2/6 143/1/6
f 141/4/6 147/4/6 145/1/6 139/1/6
f 142/3/3 148/3/3 147/4/3 141/4/3
f 140/2/5 146/2/5 148/3/5 142/3/5
f 157/1/1 159/1/1 160/2/1 158/2/1
f 139/1/4 149/1/4 150/2/4 140/2/4
f 145/1/6 151/1/6 149/1/6 139/1/6
f 146/2/2 152/2/2 151/1/2 145/1/2
f 140/2/5 150/2/5 152/2/5 146/2/5
f 161/1/4 163/1/4 164/2/4 162/2/4
f 151/1/6 155/1/6 153/1/6 149/1/6
f 152/2/2 156/2/2 155/1/2 151/1/2
f 150/2/5 154/2/5 156/2/5 152/2/5
f 153/1/4 157/1/4 158/2/4 154/2/4
f 155/1/6 159/1/6 157/1/6 153/1/6
f 156/2/2 160/2/2 159/1/2 155/1/2
f 154/2/5 158/2/5 160/2/5 156/2/5
f 149/1/3 161/1/3 162/2/3 150/2/3
f 153/1/6 163/1/6 161/1/6 149/1/6
f 154/2/1 164/2/1 163/1/1 153/1/1
f 150/2/5 162/2/5 164/2/5 154/2/5

v 0 -20 340
v 0 20 340
v 120 -20 340
v 120 20 340
v 120 -20 300
v 120 20 300
v 0 -20 300
v 0 20 300
v 160 -20 340
v 160 20 340
v 160 -20 300
v 160 20 300
v 120 -20 420
v 120 20 420
v 160 -20 420
v 160 20 420
v 120 -20 460
v 120 20 460
v 160 -20 460
v 160 20 460
v 100 -20 420
v 100 20 420
v 100 -20 460
v 100 20 460
v 120 -20 380
v 120 20 380
v 100 -20 380
v 100 20 380
v -0.0000002 -20 420
v -0.0000002 20 420
v -0.0000002 -20 380
v -0.0000002 20 380
# 32 vertices

# 0 normal

# 0 texture coordinate

o building3
usemtl default
f 167/4/1 168/3/1 166/2/1 165/1/1
f 175/4/2 176/3/2 174/2/2 173/1/2
f 171/4/3 172/3/3 170/2/3 169/1/3
f 165/4/4 166/3/4 172/2/4 171/1/4
f 168/4/5 170/3/5 172/2/5 166/1/5
f 169/4/6 167/3/6 165/2/6 171/1/6
f 169/4/6 175/4/6 173/1/6 167/1/6
f 170/3/3 176/3/3 175/4/3 169/4/3
f 168/2/5 174/2/5 176/3/5 170/3/5
f 181/1/1 183/1/1 184/2/1 182/2/1
f 167/1/4 177/1/4 178/2/4 168/2/4
f 173/1/6 179/1/6 177/1/6 167/1/6
f 174/2/2 180/2/2 179/1/2 173/1/2
f 168/2/5 178/2/5 180/2/5 174/2/5
f 185/1/4 187/1/4 188/2/4 186/2/4
f 179/1/6 183/1/6 181/1/6 177/1/6
f 180/2/2 184/2/2 183/1/2 179/1/2
f 178/2/5 182/2/5 184/2/5 180/2/5
f 189/1/3 191/1/3 192/2/3 190/2/3
f 181/1/6 187/1/6 185/1/6 177/1/6
f 182/2/1 188/2/1 187/1/1 181/1/1
f 178/2/5 186/2/5 188/2/5 182/2/5
f 177/1/2 189/1/2 190/2/2 178/2/2
f 185/1/6 191/1/6 189/1/6 177/1/6
f 194/2/4 196/2/4 195/1/4 193/1/4
f 178/2/5 190/2/5 192/2/5 186/2/5
f 186/2/1 194/2/1 193/1/1 185/1/1
f 192/2/5 196/2/5 194/2/5 186/2/5
f 191/1/3 195/1/3 196/2/3 192/2/3
f 185/1/6 193/1/6 195/1/6 191/1/6

v 0 -20 180
v 0 20 180
v 120 -20 180
v 120 20 180
v 120 -20 140
v 120 20 140
v 0 -20 140
v 0 20 140
v 160 -20 180
v 160 20 180
v 160 -20 140
v 160 20 140
v 120 -20 220
v 120 20 220
v 160 -20 220
v 160 20 220
v 120 -20 300
v 120 20 300
v 160 -20 300
v 160 20 300
v 100 -20 220
v 100 20 220
v 100 -20 300
v 100 20 300
v 100 20 260
v 100 -20 260
v 120 -20 260
v 160 -20 260
v 160 20 260
v 120 20 260
v -0.00000019999999 -20 220
v -0.00000019999999 20 220
v -0.00000019999999 20 260
v -0.00000019999999 -20 260
# 34 vertices

# 0 normal

# 0 texture coordinate

o building2
usemtl default
f 199/4/1 200/3/1 198/2/1 197/1/1
f 207/4/2 208/3/2 206/2/2 205/1/2
f 203/4/3 204/3/3 202/2/3 201/1/3
f 197/4/4 198/3/4 204/2/4 203/1/4
f 200/4/5 202/3/5 204/2/5 198/1/5
f 201/4/6 199/3/6 197/2/6 203/1/6
f 201/4/6 207/4/6 205/1/6 199/1/6
f 202/3/3 208/3/3 207/4/3 201/4/3
f 200/2/5 206/2/5 208/3/5 202/3/5
f 213/1/1 215/1/1 216/2/1 214/2/1
f 199/1/4 209/1/4 210/2/4 200/2/4
f 205/1/6 211/1/6 209/1/6 199/1/6
f 206/2/2 212/2/2 211/1/2 205/1/2
f 200/2/5 210/2/5 212/2/5 206/2/5
f 227/1/4 230/1/4 229/2/4 228/2/4
f 211/1/6 224/1/6 223/1/6 209/1/6
f 212/2/2 225/2/2 224/1/2 211/1/2
f 210/2/5 226/2/5 225/2/5 212/2/5
f 209/1/3 217/1/3 218/2/3 210/2/3
f 223/1/6 222/1/6 217/1/6 209/1/6
f 214/2/1 220/2/1 219/1/1 213/1/1
f 226/2/5 210/2/5 218/2/5 221/2/5
f 222/1/4 219/1/4 220/2/4 221/2/4
f 223/1/6 213/1/6 219/1/6 222/1/6
f 224/1/6 215/1/6 213/1/6 223/1/6
f 225/2/2 216/2/2 215/1/2 224/1/2
f 226/2/5 214/2/5 216/2/5 225/2/5
f 221/2/5 220/2/5 214/2/5 226/2/5
f 217/1/3 227/1/3 228/2/3 218/2/3
f 222/1/6 230/1/6 227/1/6 217/1/6
f 221/2/1 229/2/1 230/1/1 222/1/1
f 218/2/5 228/2/5 229/2/5 221/2/5

v 0 -20 100
v 0 20 100
v 100 -20 100
v 100 20 100
v 100 -20 60
v 100 20 60
v 0 -20 60
v 0 20 60
v 160 -20 100
v 160 20 100
v 160 -20 60
v 160 20 60
v 100 -20 140
v 100 20 140
v 160 -20 140
v 160 20 140
# 16 vertices

vn 1 0 0
vn 1 0 0
# 2 normals

# 0 texture coordinate

o building1
usemtl texture_side
f 233/4/1 234/3/1 232/2/1 231/1/1
f 241/4/2 242/3/2 240/2/7 239/1/7
f 237/4/3 238/3/3 236/2/3 235/1/3
f 231/4/4 232/3/4 238/2/4 237/1/4
f 236/3/3 242/3/3 241/4/3 235/4/3
f 243/1/1 245/1/1 246/2/1 244/2/1
f 233/1/4 243/1/4 244/2/4 234/2/4
f 240/2/7 246/2/8 245/1/8 239/1/7

usemtl texture_top
f 234/4/5 236/3/5 238/2/5 232/1/5
f 235/4/6 233/3/6 231/2/6 237/1/6
f 235/4/6 241/4/6 239/1/6 233/1/6
f 234/2/5 240/2/5 242/3/5 236/3/5
f 239/1/6 245/1/6 243/1/6 233/1/6
f 234/2/5 244/2/5 246/2/5 240/2/5

