<svg width="828" height="785" viewBox="0 0 828 785" fill="none" xmlns="http://www.w3.org/2000/svg">
<path d="M114.082 95.7044C114.082 34.6569 58.6082 3.45269 56.2538 2.15168C54.8687 1.32521 53.3313 0.785675 51.7331 0.565213C50.1348 0.344752 48.5085 0.447874 46.951 0.868436C45.3936 1.289 43.9367 2.0184 42.6674 3.01318C41.398 4.00796 40.3421 5.24777 39.5625 6.65876C38.7829 8.06974 38.2956 9.62303 38.1296 11.2261C37.9637 12.8292 38.1224 14.4492 38.5964 15.9897C39.0703 17.5302 39.8499 18.9596 40.8885 20.1929C41.9272 21.4261 43.2037 22.4379 44.642 23.168C45.0929 23.4182 90.0373 48.6978 90.0373 95.6843C90.0373 130.531 46.1448 176.247 6.75088 195.472C5.33125 196.164 4.0621 197.13 3.01587 198.312C1.96964 199.495 1.16684 200.872 0.653298 202.364C0.139754 203.856 -0.074473 205.435 0.0228473 207.011C0.120168 208.586 0.52713 210.126 1.2205 211.544C1.91387 212.962 2.88006 214.23 4.06392 215.275C5.24778 216.32 6.62611 217.122 8.12022 217.635C9.61434 218.148 11.195 218.362 12.7719 218.265C14.3488 218.168 15.8911 217.761 17.3107 217.069C56.334 198.024 114.082 146.274 114.082 95.7044Z" fill="url(#paint0_linear)"/>
<path d="M88.1137 254.027C77.4136 254.027 57.2858 258.381 42.6984 287.543C31.6777 309.561 26.1072 340.935 26.1072 380.856V490.211C26.1072 493.396 27.3739 496.451 29.6286 498.703C31.8832 500.955 34.9412 502.22 38.1298 502.22C41.3184 502.22 44.3764 500.955 46.6311 498.703C48.8857 496.451 50.1524 493.396 50.1524 490.211V380.856C50.1524 309.801 69.1881 278.046 88.1137 278.046C102.861 278.046 135.202 319.128 135.202 441.173C135.202 541.841 99.3748 646.652 25.6764 761.592C23.9493 764.271 23.3584 767.526 24.0339 770.641C24.7094 773.755 26.5958 776.474 29.2782 778.2C31.9606 779.925 35.2192 780.515 38.3373 779.84C41.4553 779.166 44.1773 777.281 45.9044 774.602C122.168 655.679 159.237 546.635 159.237 441.233C159.237 311.902 123.52 254.027 88.1137 254.027Z" fill="url(#paint1_linear)"/>
<path d="M821.38 195.492C781.987 176.267 738.094 130.551 738.094 95.7043C738.094 49.0681 783.058 23.4282 783.519 23.168C784.901 22.4044 786.118 21.3765 787.102 20.143C788.086 18.9094 788.817 17.4944 789.253 15.9787C789.689 14.463 789.823 12.8763 789.645 11.3092C789.467 9.74208 788.983 8.22524 788.218 6.84529C787.454 5.46534 786.425 4.2493 785.19 3.2666C783.955 2.28389 782.538 1.55378 781.021 1.11793C779.504 0.682086 777.915 0.549048 776.346 0.726413C774.777 0.903778 773.259 1.38807 771.878 2.15165C769.523 3.45266 714.049 34.6869 714.049 95.7043C714.049 146.274 771.797 198.024 810.821 217.069C813.68 218.425 816.959 218.6 819.946 217.556C822.933 216.513 825.388 214.335 826.778 211.495C828.168 208.654 828.381 205.381 827.371 202.385C826.36 199.39 824.208 196.913 821.38 195.492Z" fill="url(#paint2_linear)"/>
<path d="M692.939 441.193C692.939 319.098 725.27 278.066 740.028 278.066C758.923 278.066 777.989 309.861 777.989 380.876V490.211C777.989 493.396 779.256 496.451 781.51 498.703C783.765 500.955 786.823 502.22 790.012 502.22C793.2 502.22 796.258 500.955 798.513 498.703C800.767 496.451 802.034 493.396 802.034 490.211V380.856C802.034 340.935 796.454 309.531 785.443 287.543C770.856 258.381 750.728 254.027 740.028 254.027C704.621 254.027 668.894 311.902 668.894 441.173C668.894 546.575 705.964 655.619 782.217 774.542C783.306 776.241 784.805 777.638 786.577 778.605C788.349 779.573 790.337 780.078 792.356 780.076C794.516 780.082 796.638 779.507 798.498 778.411C800.359 777.314 801.889 775.738 802.928 773.846C803.968 771.955 804.478 769.819 804.405 767.662C804.333 765.506 803.68 763.409 802.515 761.592C728.766 646.672 692.939 541.861 692.939 441.193Z" fill="url(#paint3_linear)"/>
<path d="M277.81 264.205C307.56 264.174 336.083 252.354 357.12 231.341C378.156 210.327 389.989 181.836 390.021 152.118V72.056C389.999 52.9521 382.393 34.6366 368.869 21.1281C355.346 7.61959 337.01 0.0211913 317.885 0H237.735C218.61 0.0211913 200.274 7.61959 186.751 21.1281C173.227 34.6366 165.62 52.9521 165.599 72.056V152.118C165.631 181.836 177.463 210.327 198.5 231.341C219.537 252.354 248.06 264.174 277.81 264.205ZM277.81 240.187C259.078 240.163 240.839 234.192 225.728 223.136C210.616 212.08 199.415 196.511 193.742 178.679H361.878C356.205 196.511 345.003 212.08 329.892 223.136C314.78 234.192 296.541 240.163 277.81 240.187ZM189.644 152.118V107.794H365.975V152.118C365.975 152.969 365.975 153.81 365.975 154.66H189.684C189.664 153.81 189.644 152.969 189.644 152.118ZM237.735 24.0187H317.885C330.635 24.0319 342.86 29.0972 351.876 38.1031C360.891 47.109 365.962 59.3198 365.975 72.056V83.7751H189.644V72.056C189.658 59.3198 194.729 47.109 203.744 38.1031C212.76 29.0972 224.984 24.0319 237.735 24.0187Z" fill="url(#paint4_linear)"/>
<path d="M590.397 0H510.246C491.121 0.0211913 472.786 7.61959 459.262 21.1281C445.739 34.6366 438.132 52.9521 438.111 72.056V152.118C438.111 181.846 449.933 210.355 470.977 231.376C492.02 252.396 520.562 264.205 550.322 264.205C580.082 264.205 608.623 252.396 629.667 231.376C650.71 210.355 662.532 181.846 662.532 152.118V72.056C662.511 52.9521 654.904 34.6366 641.381 21.1281C627.857 7.61959 609.522 0.0211913 590.397 0ZM510.246 24.0187H590.397C603.147 24.0319 615.371 29.0972 624.387 38.1031C633.403 47.109 638.474 59.3198 638.487 72.056V83.7751H462.156V72.056C462.169 59.3198 467.24 47.109 476.256 38.1031C485.272 29.0972 497.496 24.0319 510.246 24.0187ZM638.487 154.66H462.196C462.196 153.81 462.196 152.969 462.196 152.118V107.794H638.527V152.118C638.487 152.969 638.467 153.81 638.447 154.66H638.487ZM550.322 240.187C531.59 240.163 513.351 234.192 498.24 223.136C483.128 212.08 471.927 196.511 466.254 178.679H634.389C628.717 196.511 617.515 212.08 602.404 223.136C587.292 234.192 569.053 240.163 550.322 240.187Z" fill="url(#paint5_linear)"/>
<path d="M650.9 419.676C584.265 417.494 527.238 412.29 479.288 405.765C544.31 388.462 588.403 366.735 590.778 365.514C592.594 364.6 594.15 363.241 595.297 361.564C596.445 359.886 597.148 357.945 597.34 355.922C597.532 353.899 597.207 351.861 596.396 349.998C595.585 348.134 594.314 346.507 592.701 345.268C589.605 342.906 518.832 289.705 426.088 285.332V240.967C426.088 237.782 424.822 234.728 422.567 232.475C420.312 230.223 417.254 228.958 414.066 228.958C410.877 228.958 407.819 230.223 405.564 232.475C403.31 234.728 402.043 237.782 402.043 240.967V285.302C356.297 287.463 304.67 301.845 248.355 328.135C203.019 349.301 172.141 370.218 170.849 371.098C168.363 372.947 166.688 375.683 166.173 378.736C165.658 381.789 166.343 384.923 168.086 387.483C169.828 390.043 172.493 391.832 175.524 392.477C178.555 393.122 181.719 392.573 184.354 390.944C200.221 380.598 216.607 371.068 233.447 362.392C234.327 363.463 235.384 364.377 236.572 365.094C237.785 365.814 267.02 382.938 332.943 401.172C339.342 402.94 346.245 404.751 353.652 406.606C314.749 415.953 279.423 431.295 252.122 466.492C231.553 493.003 216.725 529.051 206.807 576.688C196.217 627.498 191.077 691.707 191.077 772.991C191.077 776.176 192.344 779.23 194.598 781.483C196.853 783.735 199.911 785 203.1 785C206.288 785 209.346 783.735 211.601 781.483C213.856 779.23 215.122 776.176 215.122 772.991C215.122 735.471 216.234 701.535 218.509 670.961H619.451C622.64 670.961 625.698 669.696 627.953 667.444C630.207 665.192 631.474 662.137 631.474 658.952C631.474 655.767 630.207 652.712 627.953 650.46C625.698 648.208 622.64 646.943 619.451 646.943H426.088V591.089H594.404C597.593 591.089 600.651 589.824 602.906 587.572C605.16 585.32 606.427 582.265 606.427 579.08C606.427 575.895 605.16 572.84 602.906 570.588C600.651 568.336 597.593 567.071 594.404 567.071H426.088V513.179H574.367C577.555 513.179 580.613 511.914 582.868 509.661C585.123 507.409 586.389 504.355 586.389 501.169C586.389 497.984 585.123 494.93 582.868 492.678C580.613 490.425 577.555 489.16 574.367 489.16H426.088V421.818C483.706 431.916 557.956 440.662 650.119 443.685H650.52C653.708 443.735 656.786 442.518 659.077 440.302C661.367 438.085 662.682 435.051 662.733 431.866C662.783 428.681 661.565 425.606 659.346 423.318C657.127 421.03 654.089 419.717 650.9 419.666V419.676ZM259.215 349.622C302.987 329.246 360.104 308.97 414.066 308.97C478.076 308.97 533.45 336.512 560.491 352.724C517.202 370.792 472.163 384.351 426.088 393.186V368.727C426.088 365.541 424.822 362.487 422.567 360.235C420.312 357.982 417.254 356.717 414.066 356.717C410.877 356.717 407.819 357.982 405.564 360.235C403.31 362.487 402.043 365.541 402.043 368.727V392.855C378.078 388.021 357.76 383.078 340.928 378.464C299.13 366.985 272.52 355.927 259.215 349.672V349.622ZM402.043 646.853H220.623C222.706 626.17 225.395 607.182 228.688 589.888C230.257 590.617 231.966 590.996 233.697 590.999H402.013L402.043 646.853ZM402.043 566.981H233.647C238.706 546.325 244.818 528.371 252.031 512.939C252.605 513.026 253.184 513.073 253.765 513.079H402.043V566.981ZM265.397 489.16C267.26 486.398 269.164 483.746 271.137 481.204C303.077 440.042 346.95 430.825 402.043 421.698V489.16H265.397Z" fill="url(#paint6_linear)"/>
<defs>
<linearGradient id="paint0_linear" x1="414.37" y1="-153.5" x2="414.37" y2="592.5" gradientUnits="userSpaceOnUse">
<stop stop-color="#3A445A"/>
<stop offset="1" stop-color="#2C2E32" stop-opacity="0"/>
</linearGradient>
<linearGradient id="paint1_linear" x1="414.37" y1="-153.5" x2="414.37" y2="592.5" gradientUnits="userSpaceOnUse">
<stop stop-color="#3A445A"/>
<stop offset="1" stop-color="#2C2E32" stop-opacity="0"/>
</linearGradient>
<linearGradient id="paint2_linear" x1="414.37" y1="-153.5" x2="414.37" y2="592.5" gradientUnits="userSpaceOnUse">
<stop stop-color="#3A445A"/>
<stop offset="1" stop-color="#2C2E32" stop-opacity="0"/>
</linearGradient>
<linearGradient id="paint3_linear" x1="414.37" y1="-153.5" x2="414.37" y2="592.5" gradientUnits="userSpaceOnUse">
<stop stop-color="#3A445A"/>
<stop offset="1" stop-color="#2C2E32" stop-opacity="0"/>
</linearGradient>
<linearGradient id="paint4_linear" x1="414.37" y1="-153.5" x2="414.37" y2="592.5" gradientUnits="userSpaceOnUse">
<stop stop-color="#3A445A"/>
<stop offset="1" stop-color="#2C2E32" stop-opacity="0"/>
</linearGradient>
<linearGradient id="paint5_linear" x1="414.37" y1="-153.5" x2="414.37" y2="592.5" gradientUnits="userSpaceOnUse">
<stop stop-color="#3A445A"/>
<stop offset="1" stop-color="#2C2E32" stop-opacity="0"/>
</linearGradient>
<linearGradient id="paint6_linear" x1="414.37" y1="-153.5" x2="414.37" y2="592.5" gradientUnits="userSpaceOnUse">
<stop stop-color="#3A445A"/>
<stop offset="1" stop-color="#2C2E32" stop-opacity="0"/>
</linearGradient>
</defs>
</svg>
