<svg xmlns="http://www.w3.org/2000/svg" width="360" height="190" viewBox="0 0 360 190" fill="none">
    <path filter="url(#ff0)" d="M4 12C4 7.58172 7.58172 4 12 4H336C340.418 4 344 7.58172 344 12V166C344 170.418 340.418 174 336 174H12C7.58172 174 4 170.418 4 166V12Z" fill="white" fill-opacity="0.88"/>
    <g>
        <rect x="158.792" y="34.5" width="31.0833" height="54" rx="15.5" fill="url(#gs0)" fill-opacity="0.3" stroke="#38A8B8"/>
        <rect x="173.188" y="44.3125" width="2.29167" height="8.02083" rx="1" fill="#38A8B8"/>
        <path d="M201.833 62.6459L302.667 61.5L201.833 60.3542V62.6459Z" fill="url(#gs1)"/>
        <path d="M146.833 62.6459L46 61.5L146.833 60.3542V62.6459Z" fill="url(#gs2)"/>
    </g>
    <text x="180" y="140" fill="black" font-weight="bold" text-anchor="middle" font-size="20px">滚动换页</text>
    <defs>
        <filter id="ff0" x="0" y="0" width="360" height="190" filterUnits="userSpaceOnUse" color-interpolation-filters="sRGB">
            <feFlood flood-opacity="0" result="BackgroundImageFix"/>
            <feColorMatrix in="SourceAlpha" type="matrix" values="0 0 0 0 0 0 0 0 0 0 0 0 0 0 0 0 0 0 127 0"/>
            <feOffset dx="6" dy="6"/>
            <feGaussianBlur stdDeviation="5"/>
            <feColorMatrix type="matrix" values="0 0 0 0 0.101961 0 0 0 0 0.105882 0 0 0 0 0.117647 0 0 0 0.12 0"/>
            <feBlend mode="normal" in2="BackgroundImageFix" result="effect1_dropShadow"/>
            <feBlend mode="normal" in="SourceGraphic" in2="effect1_dropShadow" result="shape"/>
        </filter>
        <linearGradient id="gs0" x1="174.333" y1="34" x2="174.333" y2="89" gradientUnits="userSpaceOnUse">
            <stop stop-color="#38A8B8"/>
            <stop offset="1" stop-color="#38A8B8" stop-opacity="0"/>
        </linearGradient>
        <linearGradient id="gs1" x1="201.833" y1="61.5" x2="302.595" y2="64.3864" gradientUnits="userSpaceOnUse">
            <stop stop-color="#38A8B8"/>
            <stop offset="1" stop-color="#38A8B8" stop-opacity="0"/>
        </linearGradient>
        <linearGradient id="gs2" x1="146.833" y1="61.5" x2="46.0718" y2="64.3864" gradientUnits="userSpaceOnUse">
            <stop stop-color="#38A8B8"/>
            <stop offset="1" stop-color="#38A8B8" stop-opacity="0"/>
        </linearGradient>
    </defs>
</svg>